# xmcd
#
# Track frame offsets:
#  183
#  16778
#  31705
#  47598
#  59253
#  75193
#  92043
#  107110
#  121325
#  137313
#  149993
#  165265
#  179118
#
# Disc length: 2613 seconds
#
# Revision: 0
# Processed by: cddbd v1.5.1PL0 Copyright (c) Steve Scherf et al.
# Submitted via: Collectorz.com Music Collector 6.9
#
DISCID=9f0a330d
DTITLE=Capitaine de Galere - L'ocean - Sauvage!
DYEAR=1991
DGENRE=
TTITLE0=Le Vieux Loup Est Mort
TTITLE1=Chico N'avait Pas Peur
TTITLE2=J'ai Reve De Shangai
TTITLE3=Je T'aime Simplement
TTITLE4=Personne
TTITLE5=Je Veux Plus Rever
TTITLE6=Amerasienne
TTITLE7=Partir
TTITLE8=S.O.S.
TTITLE9=Petite Fille De Mon Enfance
TTITLE10=Briser Tes Chaines
TTITLE11=Je L'aime Tant
TTITLE12=Les Sirenes Pleurent
EXTD=
EXTT0=
EXTT1=
EXTT2=
EXTT3=
EXTT4=
EXTT5=
EXTT6=
EXTT7=
EXTT8=
EXTT9=
EXTT10=
EXTT11=
EXTT12=
PLAYORDER=
